<?xml version="1.0" encoding="UTF-8"?>
<svg width="96px" height="36px" viewBox="0 0 166 36" version="1.1" xmlns="http://www.w3.org/2000/svg" xmlns:xlink="http://www.w3.org/1999/xlink">
    <!-- Generator: Sketch 54.1 (76490) - https://sketchapp.com -->
    <title>A Brand / Logos / alan-logo-white-web-header-footer</title>
    <desc>Created with Sketch.</desc>
    <defs>
        <linearGradient x1="63.9066032%" y1="30.1766377%" x2="34.7430855%" y2="69.8233623%" id="linearGradient-1">
            <stop stop-color="#47B0FF" offset="0%"></stop>
            <stop stop-color="#009DFF" offset="100%"></stop>
        </linearGradient>
        <linearGradient x1="30.5461988%" y1="69.6399438%" x2="57.5382%" y2="30.3600562%" id="linearGradient-2">
            <stop stop-color="#32BEFF" offset="0%"></stop>
            <stop stop-color="#5ECCFF" offset="100%"></stop>
        </linearGradient>
        <linearGradient x1="25.0938778%" y1="83.3465813%" x2="63.629194%" y2="16.6534187%" id="linearGradient-3">
            <stop stop-color="#1970E3" offset="0%"></stop>
            <stop stop-color="#115FC6" offset="100%"></stop>
        </linearGradient>
        <linearGradient x1="28.514852%" y1="0%" x2="80.0080138%" y2="100%" id="linearGradient-4">
            <stop stop-color="#62BBFF" offset="0%"></stop>
            <stop stop-color="#009DFF" offset="100%"></stop>
        </linearGradient>
    </defs>
    <g id="A-Brand-/-Logos-/-alan-logo-white-web-header-footer" stroke="none" stroke-width="1" fill="none" fill-rule="evenodd">
        <g id="logo">
            <g>
                <path d="M18.5027551,0.00627211986 C18.4404724,0.00210810544 18.3777833,-5.37139147e-14 18.3147742,-5.35592952e-14 L17.2316076,-5.20942587e-14 L32.1029153,-6.03961325e-14 L33.5523789,-5.20942587e-14 L32.4692123,-5.35592952e-14 C32.4062033,-5.37139147e-14 32.3435141,0.00210810544 32.2812314,0.00627211986 C33.1480068,0.06737221 33.9261956,0.570917011 34.327451,1.34284539 L50.8614341,33.1506438 C50.9018618,33.228418 50.9229511,33.3146092 50.9229511,33.4020619 C50.9229511,33.7057236 50.6740849,33.95189 50.3670928,33.95189 L39.0163005,33.95189 C38.183147,33.95189 37.4199087,33.4911597 37.0389354,32.7582497 L25.3919933,10.3520583 L19.4123112,21.8556701 L24.070225,21.8556701 C24.9051558,21.8556701 25.6697094,22.3183484 26.0498444,23.0536592 L30.8566042,32.3515719 C30.9367298,32.5065622 30.9785111,32.6781544 30.9785111,32.8522337 C30.9785111,33.4595571 30.4807786,33.95189 29.8667944,33.95189 L0.872311919,33.95189 C0.411823817,33.95189 0.0385244533,33.5826403 0.0385244533,33.1271478 C0.0385244533,32.9959688 0.0701583803,32.866682 0.130800014,32.7500206 L16.4565355,1.34284539 C16.8577909,0.570917011 17.6359797,0.06737221 18.5027551,0.00627211986 Z" id="bg" fill="#009DFF"></path>
                <path d="M19.4123112,21.8556701 L24.070225,21.8556701 C24.9051558,21.8556701 25.6697094,22.3183484 26.0498444,23.0536592 L30.8566042,32.3515719 C30.9367298,32.5065622 30.9785111,32.6781544 30.9785111,32.8522337 C30.9785111,33.4595571 30.4807786,33.95189 29.8667944,33.95189 L11.767686,33.95189 C12.6008395,33.95189 13.3640778,33.4911597 13.7450511,32.7582497 L19.4123112,21.8556701 Z" id="shape" fill="url(#linearGradient-1)"></path>
                <path d="M19.4123112,21.8556701 L13.7450511,32.7582497 C13.3640778,33.4911597 12.6008395,33.95189 11.767686,33.95189 L0.945953215,33.95189 C0.8139619,33.95189 0.683856306,33.920894 0.56633869,33.8614517 C0.156346078,33.6540708 -0.00605939148,33.1571963 0.203595921,32.7516514 L5.13976968,23.2034079 C5.56742162,22.3761832 6.42754445,21.8556701 7.36684156,21.8556701 L19.4123112,21.8556701 L19.4123112,21.8556701 Z" id="shape" fill="url(#linearGradient-2)"></path>
                <path d="M19.4123112,21.8556701 L7.36684156,21.8556701 C6.42754445,21.8556701 5.56742162,22.3761832 5.13976968,23.2034079 L16.4565355,1.34284539 C16.8851304,0.518321593 17.7437735,-1.47660199e-15 18.6810712,0 L33.5523789,0 L32.4692123,6.83683732e-15 C31.4277704,4.28121681e-15 30.4737226,0.575912881 29.9975059,1.49205043 L19.4123112,21.8556701 Z" id="shape" fill="url(#linearGradient-3)"></path>
                <path d="M20.7864806,1.49205043 C20.3102639,0.575912881 19.3562161,-4.02065708e-15 18.3147742,-1.46503657e-15 L17.2316076,0 L32.1029153,-8.30187389e-15 C33.040213,-9.77847588e-15 33.8988561,0.518321593 34.327451,1.34284539 L50.8614341,33.1506438 C50.9018618,33.228418 50.9229511,33.3146092 50.9229511,33.4020619 C50.9229511,33.7057236 50.6740849,33.95189 50.3670928,33.95189 L39.0163005,33.95189 C38.183147,33.95189 37.4199087,33.4911597 37.0389354,32.7582497 L20.7864806,1.49205043 Z" id="shape" fill="url(#linearGradient-4)"></path>
            </g>
         </g>
    </g>
</svg>